<svg width="89" height="123" viewBox="0 0 89 123" fill="none" xmlns="http://www.w3.org/2000/svg">
<path d="M22.4106 1.96626C22.4099 1.96626 22.4092 1.96627 22.4084 1.96627M22.4084 1.96627C22.3725 1.96667 22.3038 1.97635 22.2047 1.996M21.4564 2.18358C20.1444 2.55564 17.6346 3.4334 14.6541 5.02896C13.8235 5.47365 12.9563 5.97408 12.0682 6.53487C8.92113 8.52225 7.14389 11.3735 4.91397 15.662C3.60886 18.1719 2.68405 21.7076 2.0489 24.3631C1.00709 28.7188 1.40982 33.3196 1.9345 38.1119C2.68034 44.924 6.07282 49.641 7.88161 51.2552C9.76051 52.932 12.3178 53.392 14.4885 54.9362C15.4393 55.6126 17.7007 56.4804 20.982 57.5316C23.659 58.3891 28.5318 58.0009 34.1179 57.64C36.7146 57.4723 39.3808 56.3697 43.1734 54.8012L43.2022 54.7893C48.7268 52.5046 51.4404 48.4735 53.476 45.6898C55.9956 42.2444 57.4921 38.2913 58.4763 35.4071C59.5287 32.3232 59.9281 29.0893 60.0287 25.2594C60.1725 19.7828 58.4251 15.022 57.1449 12.33C55.6883 9.26694 52.261 6.54572 47.4885 3.7078C45.2318 2.36589 43.1046 2.25433 40.2632 1.92695C38.0783 1.67522 34.3625 1.46942 31.4747 1.40039C26.9338 1.45774 24.3093 1.69386 22.4084 1.96627M22.4084 1.96627C22.3396 1.97614 22.2717 1.98605 22.2047 1.996M22.2047 1.996C22.0378 2.02911 21.7845 2.09053 21.4564 2.18358M22.2047 1.996C22.1496 2.00418 22.0951 2.0124 22.0412 2.02063C21.8891 2.04021 21.6907 2.09762 21.4564 2.18358M21.4564 2.18358C19.7207 2.82055 16.0202 5.02549 14.6541 5.02896M20.882 10.0092C18.728 11.441 15.5533 13.6867 13.92 16.6222C12.5714 19.0462 10.5944 23.5928 9.48879 27.2077C7.63822 33.2585 8.38122 36.889 8.77375 38.5929C9.60326 42.1938 11.336 43.5943 12.7168 45.3376C13.9597 46.907 15.4743 48.2643 19.0199 49.7434C20.4147 50.3253 22.4393 50.3725 25.0637 50.4061C27.4331 50.4363 30.5857 49.6547 34.7822 48.3787C39.4529 46.9585 42.042 44.7894 43.188 43.9049C46.3598 41.4569 48.5493 39.3384 50.8808 34.9444C53.2027 30.5687 52.305 27.3122 51.2911 24.4211C49.3751 18.9573 47.5749 17.9722 46.1941 16.425C44.3232 14.3286 40.5449 12.3161 38.0822 11.0677C32.6704 8.32437 28.1339 8.89241 25.0933 9.18626C23.1987 9.61027 21.7331 9.87906 20.882 10.0092ZM20.882 10.0092C20.3563 10.1394 19.6403 10.3991 18.5081 11.259M18.9022 21.7114V22.0033C18.9022 22.4253 18.9022 23.3365 19.6833 26.9948C20.4644 30.6531 22.0266 37.031 23.8335 43.6022M30.1455 31.7693L32.118 38.869M39.4164 57.2101C39.4164 57.08 40.0673 58.0542 41.5743 60.7057C43.6545 64.3658 45.3911 67.9129 46.9336 70.3397C47.6733 71.5034 48.1506 72.6362 50.8599 76.8832C53.5691 81.1303 58.4511 88.4844 61.1287 92.5983C64.2012 97.3186 65.1832 99.0748 66.6261 101.271C69.4525 105.572 70.6451 107.756 71.5307 109.137C73.2456 111.81 74.1285 114.063 74.9836 115.451C75.1571 115.732 75.5724 115.716 75.9353 115.652C77.8632 115.311 78.9927 112.829 80.6338 111.287C83.0314 109.036 83.7307 108.358 83.8303 107.669C84.1183 105.68 81.5018 104.021 80.5461 102.608C79.7943 101.496 78.6771 100.211 77.6534 98.7622C76.2134 96.7247 74.0772 93.6435 72.7557 91.63C71.9222 90.36 70.4597 88.5159 69.074 86.601C68.0868 85.2367 67.4299 83.9721 66.5097 82.6892C65.0978 80.7207 64.2739 79.5664 63.6476 78.1533C62.9485 76.576 61.5795 75.3578 60.1336 73.3265C57.9143 70.2086 57.1058 68.195 55.9568 66.3875C55.1392 65.1013 54.6086 63.7892 53.6549 61.8851C52.9219 60.4216 52.1114 58.8628 50.8619 57.0859C49.8056 54.8475 49.4781 53.5991 49.0846 52.7787C48.8864 52.4139 48.6911 52.1535 48.4899 51.8853M76.4984 116.375C77.0822 117.351 79.3191 120.114 80.4394 121.105C80.6869 121.324 80.9641 121.498 81.3586 121.338C83.6207 120.422 84.7079 117.7 86.0276 116.542C86.3299 116.277 86.7475 116.051 86.9813 115.754C87.8844 114.607 87.217 112.505 86.0049 110.007C85.6409 109.411 85.3155 108.955 85.0176 108.59C84.7198 108.226 84.4594 107.965 84.1912 107.5" stroke="#8189E4" stroke-width="2.8" stroke-linecap="round"/>
</svg>
