<svg width="180" height="123" viewBox="0 0 180 123" fill="none" xmlns="http://www.w3.org/2000/svg">
<path d="M88.4427 1.42752C88.3692 1.78394 89.2298 3.64818 90.4536 7.34532C93.5404 16.6704 94.8516 18.1991 96.2214 21.8974C97.2664 24.7187 98.2421 25.9023 99.0345 27.1649C99.4633 27.8481 99.7578 28.6414 100.365 30.3231C101.609 33.7641 103.715 38.8396 104.975 43.6622C105.763 46.6762 106.173 49.3662 106.532 52.8981C106.883 56.3483 106.394 59.087 106.066 63.4786C105.75 67.713 104.949 69.1059 103.477 74.5625C102.537 78.0454 100.992 80.1141 100.05 82.2473C98.5437 85.655 95.5133 90.5564 94.1413 91.9714C93.8505 92.2241 93.6365 92.5092 93.3835 92.8344C93.1305 93.1595 92.8451 93.5159 92.3348 93.8831M88.6588 1.42746C88.6588 1.28489 88.3734 1.63915 86.7992 4.105C83.1917 9.75622 80.4465 14.5225 79.6551 16.2128C77.9378 19.8808 75.2571 24.6796 74.176 27.3366C73.3633 29.334 72.3078 33.6552 70.7942 38.4777C70.1427 40.5535 69.7801 43.6676 69.0233 49.4471C68.6232 52.5025 68.766 55.8683 69.0514 59.1269C69.6083 65.4841 70.4958 68.9654 70.7456 70.2183C71.6634 74.823 73.017 76.6664 74.5976 79.9013C75.605 81.9631 77.4064 84.793 78.6 86.6054C79.9321 88.6282 81.8044 90.5607 83.7861 92.6874C85.2524 94.261 87.1366 94.9588 88.7247 94.9999C89.6578 94.9632 90.6005 94.8206 91.4632 94.6046C91.8979 94.5311 93.6421 92.4507 94.0832 92.4507M57.9567 6.61255C58.0994 7.18067 58.2464 9.9133 57.7069 12.0756C57.2804 13.7853 56.735 15.4628 55.802 18.1101C52.5966 27.2048 53.4159 29.7869 53.2364 31.4492C53.0507 33.1696 52.9835 35.4768 53.1629 37.1013C53.1997 37.4988 53.1997 37.9265 53.271 38.432C53.3424 38.9374 53.4851 39.5077 54.2808 40.5273M58.3882 5.316C58.3168 5.24471 58.2455 5.17343 60.2423 8.27328C62.2392 11.3731 66.3064 17.6463 68.7584 21.3056C71.2104 24.965 71.9239 25.8204 72.6591 26.4857M41.5218 12.0123L39.7919 26.2695M41.7379 11.3643C45.3056 16.3543 47.5003 19.5665 48.3977 21.0019C49.6518 22.7225 51.4573 24.8179 53.186 26.6886M32.873 18.7089C32.8016 20.4198 32.7303 22.1307 32.9433 27.0397C33.1562 31.9487 33.6557 40.004 33.9844 44.4388C34.3559 49.4523 35.0309 52.384 36.0007 56.768C37.6268 64.119 41.6561 68.3801 42.9232 70.6169C44.6655 73.6927 47.3472 77.2368 50.6251 79.7232C51.6881 80.5294 52.9561 81.6911 55.4016 83.2054C57.8471 84.7196 61.4148 86.5731 65.1793 88.1695C72.6766 91.3487 80.9295 92.4151 83.2702 92.4507C82.388 92.818 77.1906 93.3107 76.3948 93.5991C74.8856 94.1013 73.2163 94.7559 71.2735 95.5443C69.188 96.1902 65.8349 97.128 57.9994 96.8663C52.3722 96.6784 43.5955 96.0368 38.7294 95.7895C33.8632 95.5422 32.9356 95.6847 30.4133 96.417C27.8911 97.1493 23.8406 98.3 21.1621 99.478C17.0019 101.308 14.7008 102.442 14.458 101.835C14.3553 101.578 14.6461 101.082 14.9305 100.646C16.0116 98.9855 16.3068 95.4522 24.6239 88.81C30.0187 84.5015 33.8515 81.8379 37.312 80.8011C43.4334 78.9671 47.0703 77.8978 46.9276 77.8978M32.4395 18.2772C34.8655 22.1266 36.4721 24.3948 37.6905 25.7892C40.1634 28.6192 43.2313 32.3032 46.3287 34.7496C49.3511 37.1367 52.7517 39.5117 54.4167 40.7743C56.236 42.1541 57.66 42.8254 59.1012 43.6204C61.0498 44.6953 63.7057 45.9879 65.4809 47.6858C66.0929 48.511 66.815 49.2368 67.6421 49.7758C68.0411 50.0296 68.3978 50.2435 68.9816 50.8958M77.8472 92.8034C76.4201 93.4428 72.8091 95.8925 71.0782 97.3344C69.8112 98.3899 69.7084 102.066 69.7365 104.928C69.7621 107.535 72.8696 108.711 74.5594 109.577C77.1763 110.919 78.7034 111.882 81.6203 113.247C83.4671 114.112 85.1167 115.909 86.8865 117.03C88.4384 118.013 89.0131 120.086 89.7374 121.172C90.6108 122.481 91.5386 117.797 92.5105 116.463C94.2182 114.119 98.2935 110.746 100.366 109.261C101.837 108.207 103.141 106.78 104.114 105.339C104.915 104.154 105.451 102.961 105.667 101.849C106.362 98.2754 104.447 95.3308 103.366 94.0326C102.791 93.2441 101.926 92.447 100.633 91.7644C99.9109 91.4382 99.0546 91.1531 98.1724 90.8593M100.983 90.4271C104.367 93.3758 105.805 94.3846 108.786 95.7854C115.234 98.816 118.415 96.7651 123.826 95.0143C127.636 93.7814 134.502 90.9845 138.782 89.4831C143.061 87.9818 144.488 87.6967 147.542 87.4428C155.222 86.8046 161.012 87.1113 162.49 87.3662C162.972 87.4494 162.897 86.6943 162.682 86.1154C162.235 84.9122 161.243 83.9509 159.559 82.8039C156.673 80.8387 150.968 78.989 144.955 77.2976C141.625 76.3611 138.412 76.4573 134.74 76.6722C129.83 77.9629 125.784 79.6241 124.382 80.0194C123.693 80.2008 123.051 80.3434 122.389 80.7063M97.0911 90.8593C99.5907 90.4338 106.938 87.9906 110.736 86.58C114.748 85.0898 119.323 82.4519 122.743 80.7108C124.404 79.8652 125.555 78.6241 127.463 76.3591C129.109 74.4052 130.745 72.5756 132.438 70.383C134.737 67.4054 136.73 63.4337 138.599 60.161C139.776 58.1003 140.911 55.7305 141.38 53.7118C141.953 51.2378 143.216 48.5285 143.973 44.2524C144.416 41.7511 144.587 39.6026 145.162 37.0839C146.462 31.3948 148.043 26.3694 148.086 22.4648C148.093 21.8004 147.835 21.4528 146.477 21.6613C145.119 21.8697 142.55 22.6539 139.158 24.0558C135.765 25.4578 131.627 27.4538 127.318 29.8721C123.01 32.2904 118.657 35.0706 115.809 37.073C109.427 42.7457 106.968 45.852 106.5 46.6416C106.317 47.0747 106.246 47.5737 105.74 48.7359M96.6976 21.9859C95.937 22.0767 98.5193 18.657 101.502 14.8486C106.963 7.87668 112.501 5.683 113.92 5.02739C115.355 4.36478 113.309 8.25794 113.668 10.4916C114.048 12.8569 115.389 19.1625 116.478 23.417C117.197 26.1853 118.352 29.9288 118.822 31.8438C118.86 32.2424 118.788 32.5988 119.147 32.75M117.254 26.0539C117.254 26.0539 120.352 19.2277 123.88 16.8537C128.778 13.5574 134.779 12.6629 135.934 12.4458C136.272 12.3824 134.792 13.0906 134.144 13.6642C132.599 15.0326 132.701 18.5451 132.518 20.6837C132.482 21.0811 132.411 21.5088 132.374 22.3351C132.337 23.1614 132.337 24.3732 132.554 26.0539M144.013 50.2482C144.298 50.179 145.591 49.4575 149.42 49.1346C152.529 48.8723 158.029 48.7404 161.323 48.7728C167.253 48.8311 169.376 50.0278 171.106 50.785C173.542 51.8513 176.075 52.9786 177.739 54.1678C178.135 54.4508 178.458 54.8493 178.392 54.8904C176.744 55.9157 171.223 55.2079 164.97 57.2255C162.288 58.0908 158.457 60.8157 154.763 63.6326C151.716 65.956 147.269 68.9596 143.99 71.9817C142.158 73.4917 140.631 74.5113 139.552 75.0859C139.044 75.3753 138.616 75.6605 137.742 75.9543M146.824 29.726C149.038 29.6547 155.306 29.3674 158.515 29.294C159.514 29.2711 159.226 29.6483 158.794 29.8664C156.21 31.1703 151.892 35.7443 149.496 38.6832C148.411 41.0972 147.407 43.5382 146.323 44.9877C146.034 45.2059 143.665 46.007 143.514 46.1539M32.656 29.7258C30.0051 28.8661 24.82 27.7126 18.3008 29.2139C16.8939 29.5379 16.3785 30.1492 16.8337 30.6904C19.7072 34.1067 23.1983 34.8239 26.6968 39.1766C29.2656 43.3998 30.5586 45.8451 31.6073 48.3304C31.8603 48.8758 32.1457 49.2322 32.656 50.2475M31.5766 48.0875C31.648 48.0875 31.7193 48.0875 32.0415 48.5865C32.3637 49.0855 32.9345 50.0835 33.2999 50.8828C33.6653 51.682 33.808 52.2523 33.9551 52.8399M34.6018 54.136C33.3088 53.5614 25.4468 52.8442 18.1535 52.9814C11.3662 53.1091 6.87735 56.3524 4.33778 58.235C3.10157 59.1514 1.88253 59.5343 1.69982 59.7158C-0.645558 62.045 11.4397 57.7349 15.2388 59.0267C17.7913 59.8946 20.2488 63.5544 21.5883 65.2199C23.2995 67.3476 25.9398 70.6873 27.6048 72.1325C29.8557 74.0862 32.8591 75.8026 36.9295 77.2812C39.0178 78.0398 40.9373 78.4726 42.4519 78.4391C42.8854 78.3322 43.3849 78.1183 43.785 77.9012C44.185 77.6841 44.4704 77.4703 45.1969 77.0339M80.0118 74.6577C80.0118 74.8002 81.0821 77.939 82.9179 83.3318C83.6833 85.6594 84.1114 87.1564 85.2596 89.0682C86.4078 90.98 88.263 93.2611 90.1744 95.6114M91.9019 39.4468C92.1873 41.5854 92.4727 43.7239 93.1906 47.6058C93.9084 51.4876 95.0501 57.0479 95.7096 60.1262C96.463 63.6429 97.087 67.1381 97.7356 72.7805C97.8848 79.9804 97.5972 81.9937 97.1313 83.9313C96.808 85.0136 96.3085 86.2967 95.7939 87.6188" stroke="#B08FD6" stroke-width="2.8" stroke-linecap="round"/>
</svg>
