<svg width="186" height="123" viewBox="0 0 186 123" fill="none" xmlns="http://www.w3.org/2000/svg">
<path d="M116.29 29.8855C116.504 28.4131 115.838 25.8647 114.962 22.8601C114.085 19.8555 111.896 15.7138 109.593 12.4966C107.29 9.27934 101.984 5.9844 97.9509 3.13734C93.9178 0.290288 88.849 1.68815 85.2264 2.17111C81.6039 2.65407 76.7153 4.11153 73.2012 5.4474C69.687 6.78327 65.2805 9.40525 61.1823 13.1534C57.0841 16.9016 57.04 20.6427 56.481 23.2139C55.9221 25.7851 55.7231 25.9282 54.8922 27.5908C54.0613 29.2533 51.146 25.7528 48.8266 23.9152C46.5071 22.0776 43.6881 22.0769 40.8991 21.4258C38.1102 20.7748 35.4002 20.9974 32.3874 20.4739C29.3746 19.9504 25.6396 21.2868 23.1254 21.897C20.6113 22.5073 18.0565 23.7729 15.0942 25.067C12.132 26.3611 11.1634 28.1783 8.49334 30.7739C5.82331 33.3695 4.3692 36.8625 3.2733 40.0269C2.17739 43.1913 1.53255 47.8223 1.40557 52.3927C1.27859 56.9631 3.14062 58.5038 4.64615 61.8693C6.15168 65.2348 7.90482 67.6352 9.75285 71.4411C11.6009 75.2471 14.539 78.6479 17.4137 81.4398C20.2884 84.2316 25.351 88.2783 28.4812 90.5404C31.6113 92.8025 36.0147 94.8882 40.2414 97.5737C44.4682 100.259 55.3257 106.465 60.2915 109.625C65.2573 112.786 69.3081 114.347 73.1756 116.77C77.0431 119.192 80.3706 120.597 81.1621 120.795C81.9537 120.992 81.1442 122.321 82.5478 120.273C83.9513 118.225 86.813 108.281 92.5936 101.145C98.3741 94.009 100.993 92.6189 102.163 91.8811M140.118 44.5467C143.293 38.7627 151.996 37.848 157.294 36.974C162.592 36.1 164.454 37.2289 168.528 38.2369C172.602 39.2449 176.447 41.6728 179.814 44.8942C183.181 48.1155 184.168 54.5701 184.346 57.3234C184.524 60.0768 184.265 62.7597 183.446 65.5721C182.626 68.3844 181.316 71.6537 179.46 76.2481C177.603 80.8426 172.903 84.6931 170.838 86.994C168.772 89.295 166.449 91.2764 163.236 93.1801C160.022 95.0838 159.692 95.3138 156.419 98.7331C153.147 102.152 145.87 107.591 142.748 110.418C139.627 113.246 137.981 114.381 135.932 115.871C133.883 117.361 131.6 119.738 130.345 120.528C129.09 121.318 130.369 121.315 128.801 120.639C127.233 119.963 124.016 115.522 121.672 113.241C119.327 110.959 117.823 108.861 116.241 106.999C114.659 105.137 111.994 103.327 109.008 100.497C106.022 97.6678 103.108 92.4651 100.61 87.9381C98.1115 83.411 97.069 79.8053 95.5093 75.3835C93.9497 70.9617 93.1972 70.059 92.671 62.6337C92.1449 55.2085 92.7906 47.0944 94.4653 44.2294C96.1401 41.3644 100.813 35.1976 105.418 32.6934C110.023 30.1892 113.936 30.4099 117.236 30.8355C120.535 31.2612 130.037 34.7264 134.415 38.962C138.794 43.1976 137.986 43.8552 139.482 46.1367" stroke="#D88DAE" stroke-width="2.8" stroke-linecap="round"/>
</svg>
