<svg width="58" height="38" viewBox="0 0 58 38" fill="none" xmlns="http://www.w3.org/2000/svg">
<path d="M0 18.55C0 8.30512 8.30512 0 18.55 0L38.9922 0C49.2371 0 57.5422 8.30512 57.5422 18.55C57.5422 28.7949 49.2371 37.1 38.9922 37.1H18.55C8.30511 37.1 0 28.7949 0 18.55Z" fill="#E6E5E5"/>
<path d="M42.5427 15.7646C41.8939 24.1921 29.5802 30.9184 29.0427 31.2071C28.897 31.2855 28.7343 31.3265 28.5689 31.3265C28.4036 31.3265 28.2408 31.2855 28.0952 31.2071C27.5414 30.9109 14.5664 23.8271 14.5664 15.0771C14.5661 13.6732 14.9471 12.2956 15.6687 11.0913C16.3904 9.88712 17.4257 8.90154 18.6639 8.23989C19.9021 7.57823 21.2968 7.26534 22.699 7.33465C24.1012 7.40395 25.4582 7.85284 26.6252 8.63337C26.687 8.67437 26.7389 8.72863 26.7772 8.79219C26.8155 8.85576 26.8391 8.92705 26.8464 9.00089C26.8537 9.07472 26.8445 9.14926 26.8194 9.21909C26.7943 9.28892 26.754 9.3523 26.7014 9.40462L25.0314 11.0771C24.844 11.2646 24.7387 11.5189 24.7387 11.784C24.7387 12.0491 24.844 12.3033 25.0314 12.4909L29.0977 16.5571L26.4414 19.2021C26.3446 19.2941 26.2673 19.4044 26.2138 19.5267C26.1604 19.6491 26.132 19.7808 26.1303 19.9143C26.1286 20.0478 26.1536 20.1802 26.2039 20.3039C26.2542 20.4275 26.3287 20.5398 26.4231 20.6342C26.5175 20.7286 26.6298 20.8031 26.7534 20.8534C26.8771 20.9037 27.0095 20.9287 27.143 20.927C27.2764 20.9253 27.4082 20.8969 27.5305 20.8435C27.6528 20.79 27.7632 20.7126 27.8552 20.6159L31.2152 17.2571C31.4026 17.0696 31.5078 16.8153 31.5078 16.5502C31.5078 16.2851 31.4026 16.0309 31.2152 15.8434L27.1539 11.7809L29.3377 9.59712C30.0617 8.86938 30.9238 8.2937 31.8735 7.90387C32.8232 7.51405 33.8411 7.31796 34.8677 7.32712C39.4077 7.35587 42.8902 11.2384 42.5427 15.7646Z" fill="#342E2E"/>
</svg>
