<svg width="58" height="38" viewBox="0 0 58 38" fill="none" xmlns="http://www.w3.org/2000/svg">
<path d="M0 18.55C0 8.30512 8.30512 0 18.55 0L38.9922 0C49.2371 0 57.5422 8.30512 57.5422 18.55C57.5422 28.7949 49.2371 37.1 38.9922 37.1H18.55C8.30511 37.1 0 28.7949 0 18.55Z" fill="#FAD1DA"/>
<path d="M19.2483 15.4136C19.0625 15.2279 18.9152 15.0074 18.8146 14.7647C18.7141 14.522 18.6623 14.2619 18.6623 13.9993C18.6623 13.7366 18.7141 13.4765 18.8146 13.2338C18.9152 12.9911 19.0625 12.7706 19.2483 12.5849L27.2483 4.58488C27.6234 4.20976 28.1322 3.99902 28.6627 3.99902C29.1932 3.99902 29.7019 4.20976 30.077 4.58488C30.4522 4.95999 30.6629 5.46876 30.6629 5.99925C30.6629 6.52975 30.4522 7.03851 30.077 7.41363L22.077 15.4136C21.8913 15.5994 21.6708 15.7468 21.4281 15.8473C21.1855 15.9478 20.9253 15.9996 20.6627 15.9996C20.4 15.9996 20.1399 15.9478 19.8972 15.8473C19.6545 15.7468 19.434 15.5994 19.2483 15.4136ZM43.077 17.5849C42.8913 17.3991 42.6708 17.2518 42.4281 17.1512C42.1855 17.0507 41.9253 16.9989 41.6627 16.9989C41.4 16.9989 41.1399 17.0507 40.8972 17.1512C40.6545 17.2518 40.434 17.3991 40.2483 17.5849L32.2483 25.5849C32.0625 25.7706 31.9152 25.9911 31.8146 26.2338C31.7141 26.4765 31.6623 26.7366 31.6623 26.9993C31.6623 27.2619 31.7141 27.522 31.8146 27.7647C31.9152 28.0074 32.0625 28.2279 32.2483 28.4136C32.434 28.5994 32.6545 28.7468 32.8972 28.8473C33.1399 28.9478 33.4 28.9996 33.6627 28.9996C33.9253 28.9996 34.1855 28.9478 34.4281 28.8473C34.6708 28.7468 34.8913 28.5994 35.077 28.4136L43.077 20.4136C43.2628 20.2279 43.4102 20.0074 43.5107 19.7647C43.6112 19.522 43.663 19.2619 43.663 18.9993C43.663 18.7366 43.6112 18.4765 43.5107 18.2338C43.4102 17.9911 43.2628 17.7706 43.077 17.5849ZM38.6883 15.6099L32.052 8.97363C32.0056 8.92714 31.9505 8.89026 31.8898 8.8651C31.8291 8.83993 31.764 8.82698 31.6983 8.82698C31.6326 8.82698 31.5675 8.83993 31.5068 8.8651C31.4461 8.89026 31.391 8.92714 31.3445 8.97363L23.637 16.6811C23.5905 16.7276 23.5537 16.7827 23.5285 16.8434C23.5033 16.9041 23.4904 16.9692 23.4904 17.0349C23.4904 17.1006 23.5033 17.1656 23.5285 17.2263C23.5537 17.287 23.5905 17.3422 23.637 17.3886L25.537 19.2924L16.2483 28.5861C15.889 28.9643 15.6917 29.4678 15.6984 29.9893C15.7051 30.5108 15.9152 31.0091 16.284 31.3779C16.6528 31.7467 17.1511 31.9568 17.6726 31.9635C18.1942 31.9702 18.6977 31.7729 19.0758 31.4136L28.3695 22.1249L30.2733 24.0286C30.3197 24.0751 30.3749 24.112 30.4356 24.1372C30.4963 24.1623 30.5613 24.1753 30.627 24.1753C30.6927 24.1753 30.7578 24.1623 30.8185 24.1372C30.8792 24.112 30.9344 24.0751 30.9808 24.0286L38.6883 16.3211C38.7353 16.2746 38.7727 16.2192 38.7982 16.1582C38.8237 16.0972 38.8368 16.0317 38.8368 15.9655C38.8368 15.8993 38.8237 15.8338 38.7982 15.7728C38.7727 15.7118 38.7353 15.6564 38.6883 15.6099Z" fill="#EF4F72"/>
</svg>
