<svg width="58" height="38" viewBox="0 0 58 38" fill="none" xmlns="http://www.w3.org/2000/svg">
<path d="M0 18.55C0 8.30512 8.30512 0 18.55 0L38.9922 0C49.2371 0 57.5422 8.30512 57.5422 18.55C57.5422 28.7949 49.2371 37.1 38.9922 37.1H18.55C8.30511 37.1 0 28.7949 0 18.55Z" fill="#E1E3D5"/>
<path d="M28.5675 25.1282C28.6949 25.2512 28.7965 25.3983 28.8664 25.561C28.9362 25.7236 28.973 25.8986 28.9746 26.0756C28.9761 26.2527 28.9424 26.4283 28.8753 26.5921C28.8083 26.756 28.7093 26.9048 28.5841 27.03C28.4589 27.1552 28.31 27.2542 28.1462 27.3213C27.9823 27.3883 27.8067 27.422 27.6297 27.4205C27.4526 27.419 27.2777 27.3822 27.115 27.3123C26.9523 27.2424 26.8052 27.1409 26.6822 27.0135L24.7969 25.1282L21.0262 28.9002C21.2762 29.1504 21.4166 29.4896 21.4165 29.8433C21.4164 30.197 21.2757 30.5362 21.0256 30.7862C20.7754 31.0362 20.4361 31.1766 20.0824 31.1764C19.7287 31.1763 19.3896 31.0357 19.1396 30.7855L17.2542 28.9002C17.004 28.6502 16.8634 28.311 16.8633 27.9573C16.8632 27.6036 17.0035 27.2644 17.2536 27.0142C17.5036 26.764 17.8427 26.6234 18.1964 26.6232C18.5501 26.6231 18.8894 26.7635 19.1396 27.0135L22.9116 23.2428L21.0262 21.3575C20.7833 21.106 20.6489 20.7692 20.652 20.4196C20.655 20.07 20.7952 19.7356 21.0425 19.4884C21.2897 19.2412 21.6241 19.101 21.9737 19.0979C22.3233 19.0949 22.6601 19.2293 22.9116 19.4722L28.5675 25.1282ZM29.5115 24.1855L23.8529 18.5282L35.1675 7.21484L39.8822 8.15751L40.8249 12.8722L29.5115 24.1855Z" fill="#1E2306"/>
</svg>
