<svg width="58" height="38" viewBox="0 0 58 38" fill="none" xmlns="http://www.w3.org/2000/svg">
<path d="M0 18.55C0 8.30512 8.30512 0 18.55 0L38.9922 0C49.2371 0 57.5422 8.30512 57.5422 18.55C57.5422 28.7949 49.2371 37.1 38.9922 37.1H18.55C8.30511 37.1 0 28.7949 0 18.55Z" fill="#E8D1FA"/>
<path d="M19.4137 26.6654V21.6441L24.8271 25.1814C25.9929 25.9422 27.355 26.3472 28.7471 26.3472C30.1392 26.3472 31.5012 25.9422 32.6671 25.1814L38.0804 21.6441V26.6654C38.0804 26.8818 38.0102 27.0923 37.8804 27.2654L37.8791 27.2681L37.8777 27.2694L37.8737 27.2748L37.8617 27.2881L37.8457 27.3094L37.8284 27.3321L37.7137 27.4668C37.5796 27.6198 37.4386 27.7666 37.2911 27.9068C36.9217 28.2628 36.3711 28.7254 35.6244 29.1841C34.1284 30.1041 31.8644 30.9988 28.7471 30.9988C25.6297 30.9988 23.3657 30.1054 21.8684 29.1841C21.2691 28.8192 20.7103 28.3915 20.2017 27.9081C19.9991 27.7141 19.809 27.5074 19.6324 27.2894L19.6204 27.2761L19.6164 27.2694V27.2668C19.4865 27.0936 19.4155 26.8819 19.4137 26.6654ZM42.2937 16.5041L31.5737 23.5081C30.733 24.0566 29.7509 24.3486 28.7471 24.3486C27.7433 24.3486 26.7611 24.0566 25.9204 23.5081L16.7471 17.5134V24.6654C16.7471 24.9306 16.6417 25.185 16.4542 25.3725C16.2666 25.5601 16.0123 25.6654 15.7471 25.6654C15.4819 25.6654 15.2275 25.5601 15.04 25.3725C14.8524 25.185 14.7471 24.9306 14.7471 24.6654V16.3321C14.7471 16.2139 14.7662 16.1028 14.8044 15.9988C14.7293 15.7862 14.7282 15.5546 14.8013 15.3414C14.8744 15.1281 15.0174 14.9459 15.2071 14.8241L25.9591 7.93077C26.7914 7.39824 27.7589 7.11523 28.7471 7.11523C29.7352 7.11523 30.7027 7.39824 31.5351 7.93077L42.2871 14.8241C42.4275 14.9143 42.5431 15.0381 42.6234 15.1844C42.7037 15.3307 42.7461 15.4947 42.7468 15.6616C42.7475 15.8285 42.7063 15.9929 42.6272 16.1398C42.5481 16.2867 42.4334 16.4115 42.2937 16.5028" fill="#7D1EC6"/>
</svg>
