<svg width="58" height="38" viewBox="0 0 58 38" fill="none" xmlns="http://www.w3.org/2000/svg">
<path d="M0 18.55C0 8.30512 8.30512 0 18.55 0L38.9922 0C49.2371 0 57.5422 8.30512 57.5422 18.55C57.5422 28.7949 49.2371 37.1 38.9922 37.1H18.55C8.30511 37.1 0 28.7949 0 18.55Z" fill="#D1E6FA"/>
<path d="M42.2051 16.5V21.5C42.2051 22.0304 41.9944 22.5391 41.6193 22.9142C41.2442 23.2893 40.7355 23.5 40.2051 23.5H33.7051V30C33.7051 30.5304 33.4944 31.0391 33.1193 31.4142C32.7442 31.7893 32.2355 32 31.7051 32H26.7051C26.1746 32 25.6659 31.7893 25.2909 31.4142C24.9158 31.0391 24.7051 30.5304 24.7051 30V23.5H18.2051C17.6746 23.5 17.1659 23.2893 16.7909 22.9142C16.4158 22.5391 16.2051 22.0304 16.2051 21.5V16.5C16.2051 15.9696 16.4158 15.4609 16.7909 15.0858C17.1659 14.7107 17.6746 14.5 18.2051 14.5H24.7051V8C24.7051 7.46957 24.9158 6.96086 25.2909 6.58579C25.6659 6.21071 26.1746 6 26.7051 6H31.7051C32.2355 6 32.7442 6.21071 33.1193 6.58579C33.4944 6.96086 33.7051 7.46957 33.7051 8V14.5H40.2051C40.7355 14.5 41.2442 14.7107 41.6193 15.0858C41.9944 15.4609 42.2051 15.9696 42.2051 16.5Z" fill="#4FA2EF"/>
</svg>
