<svg width="58" height="38" viewBox="0 0 58 38" fill="none" xmlns="http://www.w3.org/2000/svg">
<path d="M0 18.55C0 8.30512 8.30512 0 18.55 0L38.9922 0C49.2371 0 57.5422 8.30512 57.5422 18.55C57.5422 28.7949 49.2371 37.1 38.9922 37.1H18.55C8.30511 37.1 0 28.7949 0 18.55Z" fill="#D0D5FB"/>
<path d="M32.786 23.1031C38.902 17.6724 43.6406 10.5378 40.862 7.40845C39.9806 6.41645 38.75 5.95645 37.4286 6.09778C36.3193 6.21911 35.1793 6.76711 34.03 7.68711C32.2233 6.75086 30.2067 6.29379 28.1729 6.35962C26.1392 6.42546 24.1563 7.01199 22.414 8.06311C21.0596 8.86526 19.8779 9.92828 18.9375 11.1905C17.997 12.4528 17.3165 13.8892 16.9353 15.4164C16.3423 17.7692 16.4847 20.2471 17.3433 22.5164C15.9233 24.1204 14.6046 27.4191 16.246 29.2671C16.9353 30.0418 17.922 30.3884 19.1086 30.3884C22.718 30.3884 28.186 27.1898 32.786 23.1031ZM37.718 8.74711C38.1953 8.70178 38.5606 8.83245 38.866 9.17778C39.174 9.52578 39.0913 10.4391 38.53 11.7498C37.9277 10.8315 37.2023 10.0001 36.374 9.27911C36.9486 8.92978 37.4086 8.78178 37.718 8.74711ZM18.7433 25.1511C19.3364 26.0108 20.0393 26.7894 20.834 27.4671C19.4673 27.8711 18.5486 27.8444 18.2406 27.4951C17.9513 27.1711 18.2433 26.0698 18.7433 25.1511ZM40.49 17.3258C38.87 19.7218 36.6153 22.2204 34.1193 24.4364C31.5406 26.7284 28.698 28.7138 26.0526 30.0391C26.8733 30.2206 27.7108 30.3153 28.5513 30.3218C30.7196 30.3185 32.8465 29.7278 34.706 28.6124C36.6378 27.4697 38.2064 25.803 39.2301 23.8055C40.2537 21.808 40.6906 19.5613 40.49 17.3258Z" fill="#4F64EF"/>
</svg>
