<svg width="58" height="38" viewBox="0 0 58 38" fill="none" xmlns="http://www.w3.org/2000/svg">
<path d="M0 18.55C0 8.30512 8.30512 0 18.55 0L38.9922 0C49.2371 0 57.5422 8.30512 57.5422 18.55C57.5422 28.7949 49.2371 37.1 38.9922 37.1H18.55C8.30511 37.1 0 28.7949 0 18.55Z" fill="#F0D0FB"/>
<path d="M25.1054 8.49621C24.9753 8.49727 24.8442 8.51558 24.7128 8.55083C23.8722 8.77633 23.3745 9.64646 23.6014 10.4942C23.6879 10.8175 23.8661 11.0892 24.1014 11.2911C22.1108 12.2565 20.7578 14.1143 20.3964 16.2111L18.9882 16.6856C18.286 16.5058 17.6497 16.4231 17.08 16.4297C16.1615 16.4401 15.4144 16.681 14.8358 17.1153C13.6784 17.9838 13.3785 19.4916 13.6152 20.9063C13.8517 22.321 14.6033 23.7267 15.7616 24.6153C16.9199 25.5038 18.5563 25.8003 20.201 24.92C20.4779 24.7716 20.7495 24.6193 21.0018 24.4843C21.1889 25.1576 21.8779 25.5568 22.5487 25.3768C23.1895 25.205 23.5829 24.5666 23.4647 23.92C24.5262 24.5481 25.6206 24.8996 26.7263 25.0078C25.8454 26.3136 24.7065 27.4809 23.3532 28.4315C25.0878 30.1644 37.4009 26.8782 37.7048 24.582C36.0242 24.4268 34.422 23.9611 32.9822 23.2343C37.2319 20.4854 41.0231 14.905 43.0232 8.57415L40.3688 9.47065C37.6119 13.6777 32.7304 15.9588 29.9216 11.2206C28.8859 10.744 27.7462 10.5377 26.6091 10.6211C26.7126 10.328 26.731 10.0015 26.6444 9.67777C26.4529 8.96258 25.8074 8.4904 25.1053 8.49615L25.1054 8.49621ZM17.1268 17.5957C17.4462 17.594 17.8059 17.6276 18.2088 17.7051C19.3748 20.0006 20.6657 21.7012 22.033 22.8829C21.9851 22.89 21.9364 22.8993 21.8885 22.9123C21.8793 22.9147 21.8702 22.9173 21.8611 22.92C21.6832 22.9403 21.5119 22.9853 21.3475 23.041C20.745 23.2454 20.1769 23.6088 19.6502 23.8906C18.3593 24.5816 17.3409 24.3538 16.4725 23.6875C15.604 23.0213 14.9565 21.8438 14.7675 20.7129C14.5783 19.582 14.8267 18.5818 15.5369 18.0488C15.892 17.7824 16.4084 17.5997 17.1268 17.5957Z" fill="#C74FEF"/>
</svg>
