<svg width="58" height="38" viewBox="0 0 58 38" fill="none" xmlns="http://www.w3.org/2000/svg">
<path d="M0 18.55C0 8.30512 8.30512 0 18.55 0L38.9922 0C49.2371 0 57.5422 8.30512 57.5422 18.55C57.5422 28.7949 49.2371 37.1 38.9922 37.1H18.55C8.30511 37.1 0 28.7949 0 18.55Z" fill="#D1F4FA"/>
<path d="M31.4582 7.61333C31.0049 7.2 30.4849 7 29.8715 7C29.2715 7 28.7515 7.2 28.3115 7.61333L20.5915 15.1067C20.1782 15.5067 19.9515 16 19.8715 16.6C19.8715 17.1867 19.9782 17.72 20.3115 18.2L28.4715 29.44C28.1382 30.1467 27.5382 30.4933 26.6582 30.4933C25.5915 30.4933 24.9249 30 24.6716 29C24.4049 28.12 23.8716 27.36 23.0449 26.7333C22.2182 26.12 21.3382 25.8 20.4182 25.8C19.0182 25.8 17.8715 26.3333 17.0049 27.4L18.8182 28.8933C19.2049 28.3733 19.7649 28.12 20.4182 28.12C21.4849 28.12 22.1515 28.6133 22.4049 29.6C22.6582 30.4933 23.2049 31.2533 24.0315 31.8933C24.8582 32.5333 25.7382 32.8667 26.6582 32.8667C28.3116 32.8667 29.5782 32.1067 30.4582 30.6L39.4449 18.1867C39.7782 17.72 39.9116 17.1867 39.8715 16.6C39.8049 16 39.5649 15.5067 39.1649 15.1067L31.4582 7.61333Z" fill="#4FD7EF"/>
</svg>
