<svg width="58" height="38" viewBox="0 0 58 38" fill="none" xmlns="http://www.w3.org/2000/svg">
<path d="M0 18.55C0 8.30512 8.30512 0 18.55 0L38.9922 0C49.2371 0 57.5422 8.30512 57.5422 18.55C57.5422 28.7949 49.2371 37.1 38.9922 37.1H18.55C8.30511 37.1 0 28.7949 0 18.55Z" fill="#D8DAF3"/>
<g clip-path="url(#clip0_167_499)">
<path fill-rule="evenodd" clip-rule="evenodd" d="M13.936 5.58306C16.9659 3.99897 20.3415 3.19148 23.7602 3.23297C27.179 3.27445 30.534 4.16363 33.5246 5.82078C33.7051 5.92062 33.8552 6.06746 33.9591 6.24573C34.0629 6.42401 34.1165 6.62706 34.1143 6.83335L34.1097 7.29963C34.1045 7.46878 34.0635 7.6349 33.9894 7.78701C33.9152 7.93912 33.8096 8.07376 33.6795 8.182C33.5495 8.29025 33.3979 8.36965 33.2348 8.41495C33.0718 8.46025 32.901 8.47042 32.7337 8.44478C29.7153 8.02235 26.6436 8.19003 23.6891 8.93849C22.9888 9.11637 22.3498 9.48061 21.8399 9.99253C21.33 10.5044 20.9683 11.1449 20.7931 11.8459L19.3509 17.6059V17.6105C19.0361 18.8617 18.8635 20.1445 18.8366 21.4345C18.8137 22.4493 17.6549 23.0779 16.9714 22.3259C14.5363 19.6475 13.2087 16.1444 13.2571 12.5248L13.3257 6.58192C13.3275 6.37548 13.3852 6.1734 13.4927 5.99712C13.6001 5.82085 13.7533 5.67697 13.936 5.58078M34.4937 11.6928C31.1768 10.8613 27.7055 10.866 24.3909 11.7065C24.1913 11.7576 24.0093 11.8617 23.864 12.0077C23.7188 12.1538 23.6157 12.3364 23.5657 12.5362L22.1257 18.3008H22.1234C21.4754 20.8715 21.5554 23.5719 22.3547 26.0997C23.154 28.6275 24.6409 30.8831 26.6491 32.6139C27.3163 33.1998 28.1128 33.6194 28.9733 33.8383C29.8338 34.0572 30.7339 34.0692 31.6 33.8733H31.6046C34.1868 33.2792 36.5534 31.9797 38.4405 30.1196C40.3277 28.2595 41.6612 25.9119 42.2926 23.3385L43.7326 17.5945C43.7823 17.3946 43.7772 17.1851 43.7176 16.9879C43.6581 16.7908 43.5463 16.6134 43.3943 16.4745C40.8688 14.1686 37.8105 12.5256 34.4937 11.6928ZM28.448 21.0802C28.5521 21.112 28.6444 21.1741 28.7131 21.2585C28.8146 21.4214 28.9478 21.5622 29.1049 21.6724C29.262 21.7827 29.4397 21.8601 29.6273 21.9002C29.815 21.9403 30.0088 21.9422 30.1972 21.9057C30.3856 21.8692 30.5648 21.7952 30.7239 21.6879C30.8831 21.5807 31.019 21.4425 31.1236 21.2816C31.2281 21.1207 31.2992 20.9403 31.3325 20.7514C31.3659 20.5624 31.3608 20.3686 31.3176 20.1816C31.2744 19.9946 31.194 19.8183 31.0811 19.6631C30.6772 19.0834 30.104 18.6428 29.44 18.4013C28.8799 18.1926 28.2772 18.1243 27.6846 18.2025C27.3115 18.2624 26.9773 18.4676 26.7552 18.7733C26.5331 19.079 26.4411 19.4603 26.4995 19.8336C26.5578 20.2069 26.7617 20.542 27.0665 20.7653C27.3713 20.9887 27.7521 21.0822 28.1257 21.0253H28.1531L28.2331 21.0299C28.3002 21.036 28.3718 21.0528 28.448 21.0802ZM35.6274 22.9316C35.4557 22.9104 35.2814 22.9283 35.1177 22.9842C34.7732 23.1307 34.3849 23.1361 34.0365 22.9993C33.688 22.8625 33.4072 22.5943 33.2544 22.2525C33.1016 21.9108 33.0891 21.5227 33.2196 21.1718C33.3501 20.8208 33.6131 20.5352 33.952 20.3762C34.6011 20.0859 35.2914 20.0379 35.8514 20.0836C36.4137 20.1271 36.9806 20.2733 37.4354 20.4996C37.7743 20.6694 38.0319 20.9668 38.1515 21.3264C38.271 21.6861 38.2429 22.0785 38.0731 22.4173C37.9034 22.7562 37.606 23.0138 37.2464 23.1334C36.8867 23.253 36.4943 23.2248 36.1554 23.0551C35.9884 22.9844 35.8084 22.9427 35.6274 22.9316Z" fill="#232A76"/>
</g>
<defs>
<clipPath id="clip0_167_499">
<rect width="32" height="32" fill="white" transform="translate(12.4941 3)"/>
</clipPath>
</defs>
</svg>
