<svg width="58" height="38" viewBox="0 0 58 38" fill="none" xmlns="http://www.w3.org/2000/svg">
<path d="M0 18.55C0 8.30512 8.30512 0 18.55 0L38.9922 0C49.2371 0 57.5422 8.30512 57.5422 18.55C57.5422 28.7949 49.2371 37.1 38.9922 37.1H18.55C8.30511 37.1 0 28.7949 0 18.55Z" fill="#FBE6D0"/>
<path d="M28.5664 5.32715C21.3864 5.32715 15.5664 11.1471 15.5664 18.3271C15.5664 25.5071 21.3864 31.3271 28.5664 31.3271C35.7464 31.3271 41.5664 25.5071 41.5664 18.3271C41.5664 11.1471 35.7464 5.32715 28.5664 5.32715ZM30.3397 13.5045C30.4683 13.4771 30.6009 13.4753 30.7301 13.4992C30.8594 13.5231 30.9826 13.5723 31.0928 13.6439C31.203 13.7154 31.298 13.808 31.3724 13.9164C31.4468 14.0247 31.4992 14.1466 31.5264 14.2751L31.6637 14.9271C31.6934 15.0564 31.697 15.1904 31.6744 15.3211C31.6518 15.4518 31.6034 15.5767 31.5321 15.6885C31.4607 15.8004 31.3678 15.8969 31.2588 15.9725C31.1498 16.0481 31.0268 16.1012 30.8971 16.1288C30.7673 16.1564 30.6334 16.1579 30.503 16.1332C30.3727 16.1085 30.2485 16.0582 30.1379 15.9851C30.0272 15.9119 29.9321 15.8175 29.8583 15.7073C29.7845 15.5971 29.7333 15.4733 29.7077 15.3431L29.5691 14.6898C29.5142 14.4304 29.5645 14.1599 29.709 13.9376C29.8535 13.7153 30.0804 13.5595 30.3397 13.5045ZM23.8184 14.8911C23.9469 14.8638 24.0796 14.862 24.2088 14.8859C24.338 14.9098 24.4613 14.959 24.5715 15.0305C24.6817 15.1021 24.7767 15.1947 24.8511 15.303C24.9255 15.4113 24.9778 15.5333 25.0051 15.6618L25.1424 16.3138C25.173 16.4435 25.1774 16.578 25.1553 16.7094C25.1332 16.8408 25.0851 16.9665 25.0138 17.0791C24.9424 17.1916 24.8493 17.2888 24.7399 17.3648C24.6304 17.4409 24.5069 17.4943 24.3766 17.5219C24.2462 17.5495 24.1116 17.5508 23.9808 17.5257C23.8499 17.5006 23.7254 17.4496 23.6145 17.3757C23.5036 17.3018 23.4086 17.2065 23.3351 17.0953C23.2616 16.9842 23.211 16.8594 23.1864 16.7285L23.0477 16.0765C23.0204 15.948 23.0186 15.8153 23.0425 15.6861C23.0664 15.5569 23.1155 15.4336 23.1871 15.3234C23.2587 15.2132 23.3513 15.1182 23.4596 15.0438C23.5679 14.9694 23.6899 14.9171 23.8184 14.8898M34.9211 19.6298C35.1054 19.8203 35.2065 20.0762 35.2022 20.3412C35.198 20.6062 35.0887 20.8587 34.8984 21.0431C34.6698 21.2653 34.4313 21.477 34.1837 21.6778L34.4744 22.2711C34.8116 22.9836 34.8548 23.8001 34.5948 24.5441C34.3347 25.2882 33.7924 25.9 33.0849 26.2474C32.3774 26.5947 31.5616 26.6497 30.8139 26.4004C30.0661 26.1511 29.4466 25.6176 29.0891 24.9151L28.7251 24.1725C27.0471 24.4993 25.3183 24.4597 23.6571 24.0565C23.4032 23.989 23.1861 23.8244 23.0526 23.5981C22.9191 23.3719 22.88 23.1022 22.9438 22.8473C23.0075 22.5925 23.169 22.373 23.3933 22.2362C23.6176 22.0995 23.8867 22.0565 24.1424 22.1165C25.6491 22.4938 27.3811 22.4991 29.1371 22.0285C30.8931 21.5578 32.3904 20.6885 33.5077 19.6071C33.6982 19.4229 33.9541 19.3217 34.2191 19.326C34.4841 19.3302 34.7366 19.4395 34.9211 19.6298Z" fill="#EF9F4F"/>
<path d="M30.6895 23.6367C31.3303 23.4056 31.9375 23.1301 32.5108 22.8101L32.6801 23.1541C32.7861 23.3906 32.7962 23.6591 32.7081 23.9029C32.6199 24.1467 32.4406 24.3468 32.2078 24.4609C31.9751 24.575 31.7071 24.5943 31.4604 24.5147C31.2137 24.4351 31.0076 24.2627 30.8855 24.0341L30.6895 23.6367Z" fill="#EF9F4F"/>
</svg>
