<svg width="58" height="38" viewBox="0 0 58 38" fill="none" xmlns="http://www.w3.org/2000/svg">
<path d="M0 18.55C0 8.30512 8.30512 0 18.55 0L38.9922 0C49.2371 0 57.5422 8.30512 57.5422 18.55C57.5422 28.7949 49.2371 37.1 38.9922 37.1H18.55C8.30511 37.1 0 28.7949 0 18.55Z" fill="#D1FAE0"/>
<path d="M20.1782 8.69619C20.9097 8.65332 21.6431 8.65689 22.3742 8.70685C23.3129 8.78019 24.4515 8.97885 25.2075 9.58685C26.2435 10.3682 26.7702 11.5695 26.8795 12.7522C26.9688 13.7013 26.7935 14.6567 26.3729 15.5122C26.8529 16.1389 27.2622 16.9069 27.6075 17.6855C28.0795 18.7495 28.4755 19.9349 28.7969 21.0335C28.9262 20.6469 29.0742 20.2575 29.2395 19.8815C29.4875 19.3162 29.7915 18.7509 30.1635 18.2509C29.3235 16.4882 29.9569 14.3602 31.5235 13.2282C32.1942 12.7135 33.1515 12.5402 33.9289 12.4722C34.7389 12.4122 35.5524 12.414 36.3622 12.4775L36.6062 12.5095C37.7195 12.7135 38.4555 13.7295 38.3889 14.8335L38.3622 15.0709C38.2353 15.8811 38.0463 16.6803 37.7969 17.4615C37.5435 18.2215 37.1435 19.1362 36.4769 19.6682C35.0409 20.8869 32.9755 20.8069 31.5169 19.8149C31.3613 20.0726 31.2124 20.3633 31.0702 20.6869C30.7676 21.3996 30.5219 22.1353 30.3355 22.8869C30.2049 23.4072 30.0929 23.9319 29.9995 24.4602C33.2209 24.5535 36.3302 25.6335 39.1995 26.8322L40.5649 27.4175L40.6555 27.4629C40.8706 27.5846 41.033 27.7816 41.1114 28.016C41.1898 28.2503 41.1786 28.5054 41.0801 28.732C40.9815 28.9587 40.8025 29.1408 40.5776 29.2432C40.3527 29.3457 40.0979 29.3612 39.8622 29.2869L39.7649 29.2509L38.4115 28.6709C35.4742 27.4442 32.5315 26.4509 29.5689 26.4495L28.8835 26.4682H28.7795C25.1289 26.2762 21.5102 27.6775 17.8982 29.2509C17.6551 29.3569 17.3798 29.3621 17.1328 29.2652C16.8859 29.1683 16.6876 28.9773 16.5815 28.7342C16.4754 28.4911 16.4703 28.2158 16.5672 27.9688C16.6641 27.7219 16.8551 27.5236 17.0982 27.4175C20.3182 26.0149 23.8875 24.5829 27.6049 24.4629C27.3985 23.5182 27.1619 22.5804 26.8955 21.6509C26.5934 20.5763 26.2206 19.5229 25.7795 18.4975C25.5681 18.0118 25.3207 17.5425 25.0395 17.0935C23.4022 18.2669 21.1729 18.0029 19.6435 16.6495C18.9142 16.0429 18.4702 15.0015 18.1862 14.1149C17.9644 13.4086 17.788 12.6889 17.6582 11.9602L17.5515 11.3295C17.3515 10.0629 18.2262 8.84685 19.5489 8.74019L20.1782 8.69619Z" fill="#4DC077"/>
</svg>
