<svg width="58" height="38" viewBox="0 0 58 38" fill="none" xmlns="http://www.w3.org/2000/svg">
<path d="M0 18.55C0 8.30512 8.30512 0 18.55 0L38.9922 0C49.2371 0 57.5422 8.30512 57.5422 18.55C57.5422 28.7949 49.2371 37.1 38.9922 37.1H18.55C8.30511 37.1 0 28.7949 0 18.55Z" fill="#F2EFD9"/>
<path d="M28.8309 5.65576C26.4172 5.65621 24.0488 6.31186 21.9785 7.55278C19.9082 8.7937 18.2136 10.5733 17.0754 12.7019C15.9372 14.8304 15.3982 17.228 15.5158 19.6388C15.6335 22.0497 16.4033 24.3834 17.7433 26.391C19.0832 28.3986 20.9431 30.0049 23.1243 31.0384C25.3056 32.0719 27.7265 32.4939 30.1288 32.2593C32.5311 32.0248 34.8247 31.1426 36.7649 29.7067C38.7051 28.2709 40.2192 26.3353 41.1456 24.1064C41.6002 23.0131 40.5109 21.9144 39.4149 22.3598C37.5365 23.1207 35.4508 23.1992 33.5204 22.5817C31.5901 21.9642 29.9372 20.6897 28.8492 18.9798C27.7612 17.2699 27.3068 15.2328 27.5651 13.2226C27.8234 11.2125 28.7779 9.35638 30.2629 7.9771L30.3656 7.87043C31.1002 7.03043 30.5162 5.66643 29.3549 5.66643H29.0002L28.9096 5.65843L28.8309 5.65576Z" fill="#181608"/>
</svg>
