<svg width="146" height="123" viewBox="0 0 146 123" fill="none" xmlns="http://www.w3.org/2000/svg">
<path d="M133.054 121.399C132.951 121.195 132.972 120.973 133.074 120.734M133.074 120.734C133.488 119.775 135.234 118.554 135.645 117.196C136.423 114.628 137.201 113.439 137.49 112.148C137.799 110.767 137.435 108.912 137.29 107.333C137.102 105.305 137.031 102.661 136.944 100.056C136.876 98.0123 137.087 96.6404 138.234 92.1785C138.685 90.4254 139.961 89.5296 140.712 87.7544C141.664 85.5045 142.496 84.6548 143.159 83.5367C144.002 82.1165 143.881 80.1275 143.853 78.1787C143.831 76.6707 143.422 75.4248 142.934 74.305C142.348 72.961 140.662 71.8745 140.284 70.3496C139.998 69.1982 139.795 67.9149 139.593 66.7082C139.347 65.2395 139.677 63.0436 140.051 61.5488C140.636 59.2122 140.14 55.8157 139.079 54.0681C138.12 52.4895 137.263 51.3435 136.658 50.1669C135.887 48.6654 135.591 46.6442 135.447 45.0367C135.31 43.4919 135.705 42.1135 135.792 40.9068C135.834 40.3301 135.936 39.6451 135.879 38.8728C135.764 37.3058 132.219 34.2182 129.298 31.7946C124.418 27.7468 122.64 25.143 121.834 23.5356C120.976 21.8235 119.421 20.8428 117.721 19.5209C115.798 18.0255 113.268 17.3991 111.157 16.7085C109.84 16.278 107.852 15.9646 106.263 15.3333C104.044 14.4522 101.527 12.1873 98.2353 9.94856C96.6446 8.86657 95.6401 7.53957 93.2004 6.01901C91.0515 4.6797 87.3633 5.23636 81.4631 4.92847C77.462 4.71968 71.573 2.86092 68.1488 2.10063C64.7246 1.34035 63.9836 1.34035 63.3454 1.45388C62.1632 1.66417 58.5308 3.90157 53.6099 6.76811C50.9453 8.32032 49.1226 7.99024 47.3366 8.02034C45.3194 8.05434 43.136 8.27577 40.0011 8.76342C37.9243 9.08648 36.6278 9.99587 34.6139 10.9118C32.8282 11.724 31.3322 13.3122 30.0903 14.6384C28.6024 16.2274 26.9519 18.1353 25.9458 19.053C24.2419 20.6072 23.038 21.118 21.9724 21.6641C20.6561 22.3386 19.0654 23.1821 17.9997 23.871C16.822 24.6323 15.9564 26.2198 14.7474 27.9949C13.9168 29.2143 12.7922 30.5166 11.5227 32.6951C10.5064 34.439 10.0252 36.3099 9.47676 37.458C8.76415 38.95 7.95248 40.7821 7.11737 42.9296C6.47795 44.574 5.07493 45.8289 4.23895 46.719C3.13227 47.8974 1.84848 48.4692 1.50304 48.8691C1.33428 49.0645 1.38559 49.3826 1.55658 49.6423C2.91203 51.7012 8.21157 54.3605 11.9104 56.2638C13.061 56.8559 16.6698 58.3752 21.4749 60.7816C24.7729 62.4332 26.4234 63.4873 29.0617 65.0036C33.0089 67.2721 36.2133 68.5375 37.0467 68.8231C39.2596 69.5813 42.5384 71.9124 44.9574 74.2319C49.3508 78.4447 50.6045 79.8282 52.102 80.7476C54.1046 81.9771 55.04 83.0414 56.5635 84.4149C58.3373 86.0142 60.1595 86.4231 61.689 87.1128C63.5301 87.9431 64.9992 88.8897 69.2473 90.1213C72.0661 90.9385 73.5179 90.7267 76.3073 91.1275C78.3606 91.4225 79.6806 92.5019 80.7187 93.7042C82.2046 95.4253 85.2561 96.9707 87.0222 97.5211L87.1755 97.5689C88.8092 98.0777 91.2415 98.8352 92.836 99.6979C94.8163 100.769 96.7214 102.017 98.1619 103.166C99.7601 104.439 101.157 105.059 102.48 106.118C104.219 107.511 108.325 109.692 110.944 111.051C112.736 111.98 115.482 113.484 117.134 114.491C117.78 114.885 118.488 115.266 120.402 116.12C124.663 118.023 128.501 119.277 130.024 120.05C131.403 120.497 132.402 120.669 133.074 120.734ZM133.074 120.734C133.402 120.766 133.652 120.772 133.831 120.772C134.092 120.717 134.32 120.546 134.554 120.371M11.0573 35.7419C12.3683 37.2177 13.6793 38.6935 17.6035 42.292C21.5278 45.8904 28.0256 51.5667 31.5724 54.7179C35.1193 57.8691 35.5183 58.3233 37.0063 59.4654C41.0592 62.424 44.1008 64.5225 44.8194 64.9516C45.1389 65.1537 45.3669 65.324 45.6018 65.4994M27.1197 16.821C27.1197 16.7075 28.9437 20.1115 32.2772 26.4079C33.7796 29.2456 34.9268 31.342 35.8275 32.8213C36.7283 34.3006 37.3553 35.0953 39.5307 38.655C41.7061 42.2147 45.411 48.5154 47.5761 52.3289C51.0107 59.0717 51.6446 60.6232 52.0176 61.3086C52.2197 61.7103 51.7827 61.4681 52.0176 62.5105M60.9749 3.06011C60.9179 3.11688 60.8608 3.17364 60.632 4.76387C60.4031 6.35409 60.0042 9.47606 59.6276 17.3567C59.2511 25.2373 58.9091 37.7819 58.7614 44.443C58.5883 52.2495 58.8435 53.624 59.0455 55.4301C59.1319 56.8388 59.2476 57.6989 59.2761 58.356C59.3046 58.7292 59.3616 59.1833 59.2476 59.4792M90.5085 6.50033C90.6225 6.50033 89.5412 9.22495 86.788 15.198C85.2699 18.4915 83.1228 22.136 81.3818 25.6828C79.6408 29.2296 78.2728 32.5219 77.3116 34.7288C75.1184 39.7644 73.364 43.7438 72.231 46.4564C71.1088 49.143 70.5314 52.1344 69.7852 54.4221C69.5538 55.2822 69.3258 56.4174 69.0659 57.3429C68.8059 58.2683 69.0152 57.5363 69.067 58.0661M110.891 17.8529C109.979 18.7611 109.067 19.6693 107.4 21.4711C105.733 23.2729 103.339 25.9407 100.539 29.4721C97.7379 33.0034 94.603 37.3174 92.6745 39.8804C90.1918 43.18 89.0742 44.4507 87.6716 46.2766C85.272 49.4005 83.1429 51.5048 81.9986 53.101C79.7143 56.0596 78.1322 58.2716 77.817 58.9296C77.6157 59.2469 78.1108 58.1171 77.8171 58.0655M127.472 30.9258C126.332 31.6069 125.289 32.3552 124.285 33.1559C123.173 34.0422 120.64 35.8986 114.456 40.9169C110.122 44.4342 103.257 49.7952 98.3652 53.9071C93.4738 58.019 90.7378 60.6868 89.1859 62.1747C87.349 63.8897 86.7704 64.2939 86.1961 64.6654C85.9068 64.8667 85.6218 65.0937 85.5009 65.3276M89.541 70.2888C93.9126 67.8257 93.1528 68.3685 98.6902 65.5269C103.685 62.9639 113.005 57.9172 118.163 55.2304C123.32 52.5437 124.004 52.3166 125.269 51.7455C126.533 51.1745 128.357 50.2663 130.294 49.4294C132.231 48.5926 134.226 47.8547 135.763 47.0944M140.772 58.7914C140.829 58.7914 140.886 58.7915 137.011 60.097C133.136 61.4026 125.327 64.0137 117.486 66.863C109.644 69.7123 102.006 72.7208 97.4731 74.3557C92.94 75.9907 91.743 76.161 90.9269 76.2771C90.1108 76.3932 90.8215 76.2186 90.5831 76.2771M90.5101 85.1089C90.3961 85.1089 91.9333 84.7115 95.7194 84.0811C97.8918 83.7194 100.645 83.7913 106.187 83.1944C111.729 82.5976 119.994 81.4623 124.65 80.8775C131.907 79.966 134.72 81.0357 136.447 81.1811C136.91 81.2094 137.366 81.2662 138.741 81.2954C140.116 81.3247 142.396 81.3247 144.399 81.3247M88.9548 93.709C90.1501 93.7073 93.6684 94.2233 99.0945 95.3612C103.777 96.343 112.386 98.0884 117.39 99.0516C125.702 100.652 128.387 100.933 130.054 101.19C133.168 101.907 134.889 102.251 136.763 102.795M40.7655 70.6596C40.9935 69.9768 42.4823 68.1449 45.4661 66.1134C47.2511 64.8982 50.8283 63.2426 53.3319 62.0231C59.0004 59.2619 62.4456 58.9665 64.9975 58.7626C68.942 58.4476 74.4981 58.7325 77.1408 58.9045C79.6748 59.0695 81.9701 61.3574 85.6594 64.8526C88.0891 67.1544 88.5508 69.5674 89.0085 70.9624C89.9985 73.9797 90.5665 76.3893 90.6528 77.8144C90.8146 80.4836 90.1692 84.6251 89.392 88.4936C88.9567 91.5209 88.4385 93.9325 88.151 94.9345C88.0344 95.3688 87.9774 95.6526 87.9187 96.117M62.7006 87.5168C62.8146 87.5168 65.3243 85.5869 70.7477 81.5843C73.7203 79.5115 77.1402 77.3545 79.016 76.0731C80.8917 74.7916 81.1197 74.451 81.7001 74.2721" stroke="#D8C08D" stroke-width="2.8" stroke-linecap="round"/>
</svg>
