<svg width="161" height="123" viewBox="0 0 161 123" fill="none" xmlns="http://www.w3.org/2000/svg">
<path d="M54.7129 4.3891C51.5866 13.6253 51.1456 18.8818 51.7984 20.5283C53.0154 23.598 59.9394 22.2492 61.9468 21.6293C64.0234 20.988 65.5458 17.3119 66.5719 13.88C67.5562 10.5877 67.4473 7.7477 67.5204 6.62051C67.5889 5.56532 67.015 4.53997 66.145 3.73858C62.8779 3.2958 58.7998 3.44011 56.9386 4.095C56.5358 4.24259 56.1756 4.31475 54.9312 4.3891M35.2811 5.48167C36.1435 8.22585 38.6978 13.5699 39.5317 13.97C42.2508 15.2747 45.6118 13.1369 46.1205 12.5564C47.4018 11.0941 44.6862 5.59538 43.0357 2.17118C42.646 1.36256 41.3263 1.47365 40.3461 1.4004C39.8701 1.39931 39.4379 1.47147 38.7109 1.9055C37.9839 2.33954 36.9752 3.13328 35.7178 4.38838M21.0904 8.9806C21.1347 9.08951 21.1823 9.20723 21.2327 9.33246M21.2327 9.33246C21.6406 10.3469 22.2304 11.8548 22.7563 13.1752M21.2327 9.33246C21.198 9.58972 21.258 9.89462 21.4255 10.2751C21.8405 11.2183 22.3223 12.2504 22.7563 13.1752M21.2327 9.33246C21.2917 8.89457 21.6255 8.59468 22.1721 8.2951C24.4304 7.0575 26.6159 6.794 27.7042 6.90224C28.9723 7.02836 29.8929 7.66645 30.4376 8.13876C31.8993 9.4062 31.7879 12.3261 31.9691 13.7856C32.0144 14.151 32.0062 14.5127 31.8261 14.8068C30.3382 15.6125 28.3756 15.6869 26.7065 15.4693C25.83 15.3239 24.8934 15.1074 23.9285 14.8844M22.7563 13.1752C23.3255 14.6044 23.8197 15.8139 23.9274 15.9405C24.2294 16.2957 23.5788 14.9283 22.7563 13.1752ZM8.64608 16.1959C10.9515 20.5254 13.0757 22.9722 15.0351 23.3001C16.0499 23.47 17.1386 23.4117 17.8754 23.0509C18.6122 22.6901 18.9724 21.9685 18.7618 20.8391C18.5511 19.7098 17.7586 18.1945 17.1342 17.2695C16.0776 16.056 13.615 15.6143 10.3784 15.4317C9.15912 15.3934 8.7989 15.4656 8.42776 15.5399M2.31819 29.3157C2.1741 29.3157 3.25258 30.3259 5.28729 31.8565C7.51195 33.53 10.0269 31.2136 10.8991 30.632C11.2903 30.3711 11.4831 30.0503 11.2342 29.2522C10.5464 27.0465 8.94627 25.312 7.7488 24.5106C6.64982 23.7751 5.30693 24.0678 4.36272 24.2121C2.90327 25.3754 1.95796 26.6874 1.41217 27.5237C1.2266 27.9272 3.28822 29.6043 3.72486 30.632M52.7466 49.2139C53.6133 47.48 56.0825 41.3728 56.8575 38.6516C57.5566 36.1969 55.8074 33.3305 54.897 31.6917C53.8792 29.8595 51.5241 28.3801 48.5724 27.0233C46.301 25.9793 43.5118 25.7475 40.7501 25.2358C38.665 24.8495 36.4559 24.9428 34.5969 25.1964C31.2566 25.6522 25.4789 27.3393 23.3885 28.4381C21.6288 29.363 19.1434 31.0521 16.695 33.3174C15.3857 34.5288 14.1832 35.9413 12.4007 41.6833C11.4347 44.795 12.3537 48.3918 13.2281 51.5339C14.3909 55.7127 15.7682 58.6731 17.0115 61.812C18.392 65.297 21.4357 72.0595 23.7771 75.8816C25.1913 78.1901 26.4701 81.0507 28.8312 84.8051C30.9389 88.1566 35.6874 93.6411 39.056 96.8729C42.2531 99.94 45.1667 102.414 47.3171 103.402C50.6542 104.936 56.1524 104.753 61.3134 102.36C65.2227 100.547 66.4562 98.129 67.5412 96.002L67.5889 95.9086C68.6753 93.7799 67.7428 90.4837 66.2582 86.8878C63.0251 79.0565 60.1781 77.5784 58.1052 75.3907C54.457 71.5406 53.4147 67.6032 51.4422 62.0667C51.5044 53.5346 53.0326 48.711 53.9048 47.3291C54.2727 46.6688 54.4888 46.0915 54.7115 45.2781M91.9958 26.7835C91.9732 26.7835 91.9577 26.8435 91.9504 26.9624M91.9504 26.9624C91.9111 27.6045 92.1124 29.9647 92.7533 33.8921C93.4483 38.1506 96.2769 40.7689 98.4568 42.117C100.878 43.6144 103.698 42.3127 105.598 41.2926C107.733 40.1465 108.291 37.078 108.733 34.4814C109.204 31.7149 105.763 27.5313 103.791 25.5131C102.389 24.0773 100.881 23.145 96.9963 22.7022C94.6888 22.4392 92.952 23.8622 91.7807 25.1381C91.5613 25.5393 91.3452 26.0444 91.45 26.4129C91.5152 26.6422 91.7073 26.8126 91.9504 26.9624ZM91.9504 26.9624C92.0979 27.0533 92.2642 27.1366 92.4324 27.2208M115.791 18.2552C115.76 18.3405 115.727 18.4377 115.692 18.546M115.692 18.546C114.934 20.9075 113.474 28.5191 113.679 32.2406C113.709 32.7759 114.041 33.0453 114.368 33.2661C115.067 33.7375 117.302 32.6976 120.102 30.6247C123.399 28.1837 122.341 23.6648 121.834 21.2147C120.383 19.6441 117.915 18.6231 115.692 18.546ZM115.692 18.546C115.691 18.546 115.692 18.5461 115.692 18.546ZM115.692 18.546C115.215 18.6182 114.853 18.7624 115.137 19.3485M130.855 20.6592C129.339 23.4012 126.707 29.4733 126.851 30.4551C126.997 31.4518 128.084 32.0994 129.172 32.4646C130.343 32.8572 131.721 31.9595 133.316 30.3315C136.329 27.2556 136.749 23.7248 136.677 22.8884C136.642 22.4801 136.461 22.1242 136.098 21.794C133.99 20.8057 132.243 20.7313 131.262 20.985C130.857 21.1665 130.641 21.4551 130.855 22.1898M147.01 25.2522C144.775 26.7631 140.607 31.1516 140.534 31.9879C140.467 32.7525 141.111 33.5568 142.054 34.285C144.67 36.3047 149.547 30.5831 150.575 28.3943C150.507 27.8804 150.075 27.4475 149.204 27.0441C148.333 26.6406 147.036 26.2799 145.919 26.3454M156.397 33.5607C156.064 33.728 155.545 33.9937 154.949 34.3434M154.949 34.3434C153.486 35.2005 151.553 36.5621 150.725 38.2159C150.453 38.7584 150.647 39.2371 151.08 39.8209C151.514 40.4047 152.306 41.1263 153.435 41.2815C155.995 41.6337 157.993 40.0527 158.83 38.9987C159.589 38.0414 159.454 36.9171 159.202 36.1901C158.95 35.8238 158.445 35.463 157.609 35.1689C156.857 34.9044 155.849 34.7027 154.949 34.3434ZM154.949 34.3434C154.848 34.3033 154.748 34.2611 154.651 34.2167M113.389 67.8911C112.234 66.7366 108.891 62.8051 106.99 59.9559C105.486 57.7025 107.708 53.617 109.559 50.2661C111.767 46.2698 115.563 44.7176 117.78 43.1902C121.762 40.4472 125.156 39.6185 129.383 38.6301C134.155 37.5142 137.906 38.4421 139.904 39.0969C143.51 40.2786 144.887 42.6622 146.784 43.9435C148.646 45.2008 150.633 48.9115 152.209 53.1917C152.679 54.4705 153.408 56.5055 154.244 59.1261C154.797 60.8582 154.653 64.5806 154.109 70.0744C153.682 74.3877 152.544 77.2103 151.926 79.1378C151.389 80.8113 150.007 85.3466 147.645 91.5718C145.306 97.7362 144.032 100.607 142.215 103.481C140.417 106.326 138.076 110.436 134.628 114.328C129.714 119.874 127.081 120.002 124.751 120.767C121.739 121.756 119.584 121.388 117.544 120.991C115.405 120.575 113.039 118.777 111.319 116.841C109.925 115.272 110.551 112.222 111.164 108.727C111.972 104.121 113.677 100.913 114.438 99.2468C115.867 96.1167 116.515 93.4064 117.276 90.9093C118.899 85.582 118.777 80.0813 118.268 77.0955C117.802 74.36 116.24 71.0485 113.435 66.9924C112.882 66.2905 112.594 66.0019 112.265 65.7449C111.937 65.488 111.577 65.2715 110.987 64.1739" stroke="#D68F8F" stroke-width="2.8" stroke-linecap="round"/>
</svg>
