<svg width="32" height="32" viewBox="0 0 32 32" fill="none" xmlns="http://www.w3.org/2000/svg">
<path d="M13.3333 27.4234C8.7619 28.9664 4.95238 27.4234 2.66666 22.6667" stroke="#0D0D0D" stroke-width="2" stroke-linecap="round" stroke-linejoin="round"/>
<path d="M13.3333 29.3334V25.0106C13.3333 24.2128 13.5785 23.5195 13.9739 22.8932C14.2451 22.4635 14.0593 21.8539 13.5695 21.7192C9.51192 20.6038 6.66666 18.8103 6.66666 12.8614C6.66666 11.3148 7.1734 9.86076 8.06414 8.59522C8.28582 8.28026 8.39665 8.12279 8.4233 7.98015C8.44994 7.83752 8.40362 7.65138 8.31096 7.27911C7.93384 5.76391 7.95828 4.15494 8.52429 2.70432C8.52429 2.70432 9.69389 2.32324 12.356 3.98627C12.9638 4.36598 13.2677 4.55583 13.5353 4.5983C13.8029 4.64076 14.1608 4.5518 14.8764 4.3739C15.8551 4.13062 16.8635 4.00002 18 4.00002C19.1365 4.00002 20.1449 4.13062 21.1236 4.3739C21.8392 4.5518 22.1971 4.64076 22.4647 4.5983C22.7324 4.55583 23.0363 4.36598 23.644 3.98627C26.3061 2.32324 27.4757 2.70432 27.4757 2.70432C28.0417 4.15494 28.0661 5.76391 27.6891 7.27911C27.5964 7.65138 27.55 7.83752 27.5767 7.98015C27.6033 8.12278 27.7141 8.28027 27.9359 8.59522C28.8265 9.86076 29.3333 11.3148 29.3333 12.8614C29.3333 18.8103 26.4881 20.6038 22.4305 21.7192C21.9407 21.8539 21.7549 22.4635 22.0261 22.8932C22.4215 23.5195 22.6667 24.2128 22.6667 25.0106V29.3334" stroke="#0D0D0D" stroke-width="2" stroke-linecap="round" stroke-linejoin="round"/>
</svg>
