<svg width="32" height="32" viewBox="0 0 32 32" fill="none" xmlns="http://www.w3.org/2000/svg">
<path d="M6 12.6667H5.33333C4.07625 12.6667 3.44772 12.6667 3.05719 13.0572C2.66667 13.4478 2.66667 14.0763 2.66667 15.3334V26.6667C2.66667 27.9238 2.66667 28.5523 3.05719 28.9428C3.44772 29.3334 4.07625 29.3334 5.33333 29.3334H6C7.25708 29.3334 7.88561 29.3334 8.27615 28.9428C8.66667 28.5523 8.66667 27.9238 8.66667 26.6667V15.3334C8.66667 14.0763 8.66667 13.4478 8.27615 13.0572C7.88561 12.6667 7.25708 12.6667 6 12.6667Z" stroke="#0D0D0D" stroke-width="2"/>
<path d="M8.66667 5.66669C8.66667 7.32354 7.32352 8.66669 5.66667 8.66669C4.00981 8.66669 2.66667 7.32354 2.66667 5.66669C2.66667 4.00983 4.00981 2.66669 5.66667 2.66669C7.32352 2.66669 8.66667 4.00983 8.66667 5.66669Z" stroke="#0D0D0D" stroke-width="2"/>
<path d="M16.4347 12.6667H15.3333C14.0763 12.6667 13.4477 12.6667 13.0572 13.0572C12.6667 13.4478 12.6667 14.0763 12.6667 15.3334V26.6667C12.6667 27.9238 12.6667 28.5523 13.0572 28.9428C13.4477 29.3334 14.0763 29.3334 15.3333 29.3334H16C17.2571 29.3334 17.8856 29.3334 18.2761 28.9428C18.6667 28.5523 18.6667 27.9238 18.6667 26.6667L18.6668 22.0002C18.6668 19.7911 19.3708 18.0002 21.4505 18.0002C22.4903 18.0002 23.3333 18.8956 23.3333 20.0002V26.0002C23.3333 27.2572 23.3333 27.8858 23.7239 28.2763C24.1143 28.6668 24.7429 28.6668 26 28.6668H26.6649C27.9217 28.6668 28.5501 28.6668 28.9407 28.2764C29.3312 27.886 29.3313 27.2576 29.3316 26.0008L29.3335 18.667C29.3335 15.3534 26.1819 12.667 23.0624 12.667C21.2865 12.667 19.7023 13.5375 18.6668 14.8987C18.6667 14.0586 18.6667 13.6386 18.4843 13.3267C18.3687 13.1292 18.2041 12.9647 18.0067 12.8492C17.6948 12.6667 17.2748 12.6667 16.4347 12.6667Z" stroke="#0D0D0D" stroke-width="2" stroke-linejoin="round"/>
</svg>
