<svg width="32" height="32" viewBox="0 0 32 32" fill="none" xmlns="http://www.w3.org/2000/svg">
<path d="M2.66667 8L11.884 13.2226C15.2821 15.148 16.7179 15.148 20.116 13.2226L29.3333 8" stroke="#0D0D0D" stroke-width="2" stroke-linejoin="round"/>
<path d="M2.6877 17.9675C2.77486 22.055 2.81845 24.0986 4.32662 25.6126C5.83478 27.1264 7.93378 27.1791 12.1318 27.2846C14.7191 27.3496 17.2809 27.3496 19.8683 27.2846C24.0663 27.1791 26.1652 27.1264 27.6735 25.6126C29.1816 24.0986 29.2252 22.055 29.3123 17.9675C29.3404 16.6532 29.3404 15.3468 29.3123 14.0326C29.2252 9.94517 29.1816 7.90148 27.6735 6.38757C26.1652 4.87366 24.0663 4.82093 19.8683 4.71545C17.2809 4.65044 14.7191 4.65044 12.1318 4.71544C7.93378 4.8209 5.83478 4.87364 4.32661 6.38756C2.81843 7.90146 2.77486 9.94515 2.68769 14.0326C2.65966 15.3468 2.65967 16.6532 2.6877 17.9675Z" stroke="#0D0D0D" stroke-width="2" stroke-linejoin="round"/>
</svg>
