<svg width="18" height="17" viewBox="0 0 18 17" fill="none" xmlns="http://www.w3.org/2000/svg">
<path d="M7.12184 1.14499C7.45646 -0.381585 9.63338 -0.381585 9.96801 1.14499V1.14499C10.1968 2.1889 11.4344 2.63935 12.2807 1.98675V1.98675C13.5183 1.03242 15.1859 2.43171 14.461 3.81623V3.81623C13.9653 4.763 14.6238 5.90357 15.6916 5.94764V5.94764C17.2531 6.0121 17.6311 8.15594 16.1858 8.75057V8.75057C15.1975 9.1572 14.9688 10.4542 15.7584 11.1743V11.1743C16.9132 12.2274 15.8247 14.1127 14.3354 13.6392V13.6392C13.3169 13.3154 12.308 14.162 12.45 15.2212V15.2212C12.6577 16.7701 10.6121 17.5147 9.77549 16.1946V16.1946C9.20343 15.2919 7.88642 15.2919 7.31435 16.1946V16.1946C6.47779 17.5147 4.43215 16.7701 4.63983 15.2212V15.2212C4.78184 14.162 3.77295 13.3154 2.75448 13.6392V13.6392C1.26512 14.1127 0.176659 12.2274 1.3314 11.1743V11.1743C2.12104 10.4542 1.89234 9.1572 0.904025 8.75057V8.75057C-0.541251 8.15594 -0.163233 6.0121 1.39826 5.94764V5.94764C2.46604 5.90357 3.12455 4.763 2.62883 3.81623V3.81623C1.9039 2.43171 3.57152 1.03242 4.80912 1.98675V1.98675C5.65542 2.63935 6.89301 2.1889 7.12184 1.14499V1.14499Z" fill="#FAD976"/>
</svg>
